<svg width="12" height="14" viewBox="0 0 12 14" fill="none" xmlns="http://www.w3.org/2000/svg">
<path fill-rule="evenodd" clip-rule="evenodd" d="M6.8583 12.7154C9.16806 11.0875 11.25 8.47015 11.25 6.13012C11.25 3.50256 9.15524 0.875 6 0.875C2.84476 0.875 0.75 3.50256 0.75 6.13012C0.75 8.47015 2.83194 11.0875 5.1417 12.7154C5.52914 12.9885 5.72285 13.125 6 13.125C6.27715 13.125 6.47086 12.9885 6.8583 12.7154ZM6 7.875C6.9665 7.875 7.75 7.0915 7.75 6.125C7.75 5.1585 6.9665 4.375 6 4.375C5.0335 4.375 4.25 5.1585 4.25 6.125C4.25 7.0915 5.0335 7.875 6 7.875Z" fill="#A160FB"/>
</svg>
