<svg width="14" height="14" viewBox="0 0 14 14" fill="none" xmlns="http://www.w3.org/2000/svg">
<path fill-rule="evenodd" clip-rule="evenodd" d="M10.1139 1.55569L10.3099 1.75169C10.5253 1.96708 10.5646 2.30218 10.4049 2.56159C10.2284 2.84846 10.2654 3.22939 10.5134 3.4774C10.7614 3.7254 11.1423 3.76244 11.4292 3.58587C11.6886 3.42621 12.0237 3.46554 12.2391 3.68093L12.4443 3.88613C12.6895 4.13131 12.901 4.34282 13.061 4.53127C13.2299 4.73018 13.3796 4.94624 13.4659 5.21191C13.5947 5.60824 13.5947 6.03516 13.4659 6.43149C13.3796 6.69716 13.2299 6.91322 13.061 7.11213C12.901 7.30058 12.6895 7.51209 12.4443 7.75726L7.75726 12.4443C7.51209 12.6895 7.30058 12.901 7.11213 13.061C6.91322 13.2299 6.69716 13.3796 6.43149 13.4659C6.03516 13.5947 5.60824 13.5947 5.21191 13.4659C4.94624 13.3796 4.73018 13.2299 4.53127 13.061C4.34282 12.901 4.13131 12.6895 3.88614 12.4443L3.68029 12.2385C3.46533 12.0235 3.42568 11.6892 3.58438 11.43C3.75983 11.1433 3.72248 10.7634 3.47497 10.5159C3.22747 10.2684 2.84755 10.231 2.5609 10.4065C2.30161 10.5652 1.96735 10.5255 1.75239 10.3106L1.55568 10.1139C1.31049 9.86869 1.09897 9.65718 0.938983 9.46873C0.770124 9.26982 0.620401 9.05376 0.534082 8.78809C0.405307 8.39176 0.405306 7.96484 0.534082 7.56851C0.620401 7.30284 0.770124 7.08678 0.938983 6.88787C1.09897 6.69942 1.31049 6.48791 1.55569 6.24273L6.24273 1.55569C6.48791 1.3105 6.69942 1.09897 6.88787 0.938983C7.08678 0.770124 7.30284 0.620401 7.56851 0.534082C7.96484 0.405306 8.39176 0.405306 8.78809 0.534082C9.05376 0.620401 9.26982 0.770124 9.46873 0.938982C9.65718 1.09897 9.86869 1.31049 10.1139 1.55569ZM8.38157 1.78525C8.41628 1.79653 8.48065 1.82585 8.61733 1.94188C8.73394 2.04088 8.87127 2.17452 9.06419 2.36668C8.85775 3.06674 9.03029 3.85475 9.58317 4.40763C10.1361 4.96052 10.9241 5.13306 11.6242 4.9266C11.8212 5.12437 11.9576 5.26421 12.0581 5.38267C12.1742 5.51935 12.2035 5.58372 12.2148 5.61844C12.2577 5.75055 12.2577 5.89285 12.2148 6.02496C12.2035 6.05968 12.1742 6.12405 12.0581 6.26073C11.9371 6.40328 11.7643 6.5768 11.4961 6.84496L10.6431 7.69803L6.30197 3.35693L7.15504 2.50386C7.4232 2.23569 7.59672 2.0629 7.73927 1.94188C7.87595 1.82585 7.94032 1.79653 7.97504 1.78525C8.10715 1.74232 8.24945 1.74232 8.38157 1.78525ZM2.50385 7.15504C2.23569 7.42321 2.0629 7.59672 1.94188 7.73927C1.82585 7.87595 1.79653 7.94032 1.78525 7.97504C1.74232 8.10715 1.74232 8.24945 1.78525 8.38157C1.79653 8.41628 1.82585 8.48065 1.94188 8.61733C2.04112 8.73423 2.17518 8.87195 2.3681 9.06562C3.06718 8.86089 3.85334 9.03377 4.40521 9.58564C4.95709 10.1375 5.12997 10.9237 4.92523 11.6228C5.12373 11.8206 5.26394 11.9573 5.38267 12.0581C5.51935 12.1742 5.58372 12.2035 5.61844 12.2148C5.75055 12.2577 5.89285 12.2577 6.02496 12.2148C6.05968 12.2035 6.12405 12.1742 6.26073 12.0581C6.40328 11.9371 6.5768 11.7643 6.84496 11.4961L9.72378 8.61733L5.37389 4.28501L2.50385 7.15504Z" fill="#A160FB"/>
</svg>
