<svg width="19" height="19" viewBox="0 0 19 19" fill="none" xmlns="http://www.w3.org/2000/svg">
<path fill-rule="evenodd" clip-rule="evenodd" d="M16.9079 4.8774C16.6538 4.62059 16.2528 4.58121 15.9536 4.78368C15.4672 5.11278 14.7997 5.061 14.3693 4.63061C13.939 4.20023 13.8872 3.53273 14.2163 3.04637C14.4188 2.74715 14.3794 2.34615 14.1226 2.09204C13.4276 1.4044 12.8734 0.881368 12.1897 0.659213C11.5364 0.446929 10.8326 0.446929 10.1792 0.659213C9.76178 0.794854 9.40851 1.03384 9.05384 1.33493C8.7112 1.62581 8.32144 2.01557 7.84487 2.49216L2.49218 7.84485C2.0156 8.32142 1.62581 8.7112 1.33493 9.05384C1.03384 9.40851 0.794854 9.76178 0.659213 10.1792C0.446929 10.8326 0.446929 11.5364 0.659213 12.1897C0.881368 12.8734 1.40441 13.4276 2.09205 14.1226C2.34616 14.3794 2.74714 14.4188 3.04636 14.2163C3.53272 13.8872 4.2002 13.939 4.63059 14.3694C5.06097 14.7998 5.11275 15.4672 4.78366 15.9536C4.5812 16.2528 4.62059 16.6538 4.87739 16.9079C5.57237 17.5956 6.12657 18.1186 6.8103 18.3408C7.46364 18.5531 8.16742 18.5531 8.82076 18.3408C9.23822 18.2051 9.59149 17.9662 9.94616 17.6651C10.2888 17.3742 10.6785 16.9844 11.1551 16.5079L16.5078 11.1551C16.9844 10.6786 17.3742 10.2888 17.6651 9.94616C17.9662 9.59149 18.2051 9.23822 18.3408 8.82077C18.5531 8.16742 18.5531 7.46364 18.3408 6.8103C18.1186 6.12657 17.5956 5.57237 16.9079 4.8774ZM13.3077 5.69225C14.0953 6.47986 15.2404 6.69004 16.2194 6.3241C16.6703 6.80231 16.8384 7.04495 16.9129 7.27425C17.0272 7.62606 17.0272 8.00501 16.9129 8.35681C16.8629 8.5107 16.7613 8.69085 16.5205 8.97449C16.274 9.26485 15.9282 9.61151 15.4239 10.1158L14.5746 10.965L13.7819 10.1724C13.4888 9.87919 13.0135 9.87919 12.7203 10.1724C12.4271 10.4655 12.4271 10.9408 12.7203 11.234L13.513 12.0267L10.1158 15.4239C9.61151 15.9282 9.26485 16.274 8.97449 16.5205C8.69085 16.7613 8.5107 16.8629 8.35681 16.9129C8.00501 17.0272 7.62605 17.0272 7.27425 16.9129C7.04495 16.8384 6.80231 16.6703 6.32409 16.2194C6.69001 15.2404 6.47982 14.0953 5.69222 13.3077C4.90463 12.5201 3.75957 12.31 2.78057 12.6759C2.32965 12.1977 2.16162 11.955 2.08711 11.7257C1.97281 11.3739 1.97281 10.995 2.08711 10.6432C2.13711 10.4893 2.23869 10.3092 2.47949 10.0255C2.72598 9.73515 3.07182 9.38849 3.57606 8.88425L6.97331 5.487L7.76596 6.27965C8.05913 6.57281 8.53444 6.57281 8.8276 6.27965C9.12077 5.98648 9.12076 5.51117 8.8276 5.21801L8.03495 4.42536L8.88425 3.57606C9.38849 3.07182 9.73515 2.72598 10.0255 2.47949C10.3092 2.23869 10.4893 2.13711 10.6432 2.08711C10.995 1.97281 11.3739 1.97281 11.7257 2.08711C11.955 2.16162 12.1977 2.32965 12.6759 2.78055C12.3099 3.75956 12.5201 4.90465 13.3077 5.69225ZM10.9509 7.34132C10.6578 7.04816 10.1824 7.04816 9.88928 7.34132C9.59611 7.63448 9.59611 8.1098 9.88928 8.40296L10.597 9.11072C10.8902 9.40388 11.3655 9.40388 11.6587 9.11072C11.9518 8.81755 11.9518 8.34224 11.6587 8.04908L10.9509 7.34132Z" fill="#3C94EE"/>
</svg>
